<svg xmlns="http://www.w3.org/2000/svg" width="64" height="64" viewBox="0 0 64 64">
  <defs>
    <linearGradient id="guardianGrad" x1="0%" y1="0%" x2="100%" y2="100%">
      <stop offset="0%" style="stop-color:#3B82F6"/>
      <stop offset="100%" style="stop-color:#1D4ED8"/>
    </linearGradient>
  </defs>
  <path fill="url(#guardianGrad)" d="M32 4L8 14v18c0 13.9 10.3 26.9 24 30 13.7-3.1 24-16.1 24-30V14L32 4zm0 8l16 7v13c0 9.4-6.9 18.2-16 20.4-9.1-2.2-16-11-16-20.4V19l16-7z"/>
  <path fill="url(#guardianGrad)" d="M32 20c-5.5 0-10 4.5-10 10v4c0 5.5 4.5 10 10 10s10-4.5 10-10v-4c0-5.5-4.5-10-10-10zm0 4c3.3 0 6 2.7 6 6v4c0 3.3-2.7 6-6 6s-6-2.7-6-6v-4c0-3.3 2.7-6 6-6z"/>
</svg>
